<?xml version="1.0" encoding="UTF-8"?>
<svg width="106px" height="32px" viewBox="0 0 106 32" version="1.1" xmlns="http://www.w3.org/2000/svg" xmlns:xlink="http://www.w3.org/1999/xlink">
    <!-- Generator: Sketch 51.3 (57544) - http://www.bohemiancoding.com/sketch -->
    <title>logo-white</title>
    <desc>Created with Sketch.</desc>
    <defs>
        <polygon id="path-1" points="0.01505 0.32055 16.32355 0.32055 16.32355 15.5 0.01505 15.5"></polygon>
    </defs>
    <g id="logo-white" stroke="none" stroke-width="1" fill="none" fill-rule="evenodd">
        <g id="Group-22">
            <polygon id="Fill-1" fill="#FFFFFF" points="45.79235 10.3357 56.44135 10.3357 56.44135 12.1737 48.20585 12.1737 48.20585 15.7747 56.55635 15.7747 56.55635 17.7442 48.20585 17.7442 48.20585 21.6452 56.55635 21.6452 56.55635 23.4647 45.79235 23.4647"></polygon>
            <g id="Group-21">
                <path d="M66.05695,23.46455 L63.75845,23.46455 L63.75845,17.76255 C63.75845,16.58155 63.10745,16.09355 62.22645,16.09355 C61.09645,16.09355 60.23445,16.91905 60.23445,19.46955 L60.23445,23.46455 L57.95495,23.46455 L57.95495,14.70555 L60.06195,14.70555 L60.06195,16.56255 C60.42595,15.43705 61.40245,14.48055 62.97345,14.48055 C64.39095,14.48055 65.50145,15.26855 65.82695,16.60005 C66.22945,15.47455 67.12945,14.48055 68.87245,14.48055 C70.57695,14.48055 71.87945,15.41855 71.87945,17.72505 L71.87945,23.46455 L69.58095,23.46455 L69.58095,17.76255 C69.58095,16.60005 68.92995,16.09355 68.06795,16.09355 C66.95695,16.09355 66.05695,16.91905 66.05695,19.46955 L66.05695,23.46455 Z" id="Fill-2" fill="#FFFFFF"></path>
                <path d="M80.4541,19.0945 C80.4541,17.219 79.4006,16.075 78.0026,16.075 C76.6041,16.075 75.4936,17.219 75.4936,19.0945 C75.4936,20.97 76.5851,22.0955 78.0026,22.0955 C79.4201,22.0955 80.4541,20.97 80.4541,19.0945 Z M73.2526,9.5855 L75.5506,9.5855 L75.5506,16.0935 C76.0486,15.2685 77.0256,14.4805 78.6346,14.4805 C81.2201,14.4805 82.7716,16.525 82.7716,19.0755 C82.7716,21.664 81.1626,23.6895 78.4816,23.6895 C76.7576,23.6895 75.7231,22.8455 75.2636,21.983 L75.2636,23.4645 L73.2526,23.4645 L73.2526,9.5855 Z" id="Fill-4" fill="#FFFFFF"></path>
                <path d="M98.12065,19.07575 C98.12065,20.93275 99.17415,22.09525 100.57215,22.09525 C101.97065,22.09525 103.08115,20.95125 103.08115,19.07575 C103.08115,17.21925 102.00865,16.07475 100.59115,16.07475 C99.17415,16.07475 98.12065,17.21925 98.12065,19.07575 Z M105.32215,9.58575 L105.32215,23.46475 L103.06215,23.46475 L103.06215,22.02025 C102.50665,23.10825 101.43415,23.68975 100.01715,23.68975 C97.31615,23.68975 95.80315,21.62625 95.80315,19.11325 C95.80315,16.52525 97.39265,14.48075 99.99765,14.48075 C101.41515,14.48075 102.50665,15.08075 103.02415,16.05625 L103.02415,9.58575 L105.32215,9.58575 Z" id="Fill-6" fill="#FFFFFF"></path>
                <path d="M0.9206,10.46125 L15.4021,10.46125 L16.3391,10.46125 L16.3391,9.62175 L16.3391,6.94775 L16.3391,0.00025 C8.9956,0.00025 2.8191,4.42825 0.9206,10.46125" id="Fill-8" fill="#FFFFFF"></path>
                <path d="M15.40205,12.10235 L13.82205,12.10235 L0.61355,12.10235 C0.22255,13.34335 5e-05,14.64735 5e-05,15.99985 C5e-05,17.35235 0.22255,18.65635 0.61355,19.89785 L14.98605,19.89785 L15.40205,19.89785 L16.33905,19.89785 L16.33905,19.05835 L16.33905,12.94185 L16.33905,12.10235 L15.40205,12.10235 Z" id="Fill-10" fill="#FFFFFF"></path>
                <path d="M15.40205,21.5387 L14.59805,21.5387 L0.92055,21.5387 C2.81905,27.5727 8.99455,31.9997 16.33905,31.9997 L16.33905,26.6047 L16.33905,24.4057 L16.33905,22.3782 L16.33905,21.5387 L15.40205,21.5387 Z" id="Fill-12" fill="#FFFFFF"></path>
                <path d="M34.32375,0 C34.25725,1.2145 34.05375,2.393 33.72925,3.5225 C31.79375,10.245 25.49925,15.1795 18.01525,15.1795 L18.01525,3.5225 L18.01525,0 L34.32375,0 Z" id="Fill-14" fill="#FFFFFF"></path>
                <g id="Group-18" transform="translate(18.000000, 16.500000)">
                    <mask id="mask-2" fill="white">
                        <use xlink:href="#path-1"></use>
                    </mask>
                    <g id="Clip-17"></g>
                    <path d="M0.01505,0.32055 L0.01505,3.84305 L0.01505,15.50005 C7.49955,15.50005 13.79355,10.56605 15.72905,3.84305 C16.05405,2.71355 16.25705,1.53505 16.32355,0.32055 L0.01505,0.32055 Z" id="Fill-16" fill="#FFFFFF" mask="url(#mask-2)"></path>
                </g>
                <path d="M88.0717,15.9817 L90.6097,15.9817 C91.8867,15.9817 92.6327,16.7632 92.7097,18.0137 L90.6097,18.0137 L88.0717,18.0137 L85.7662,18.0137 C85.8427,16.9197 86.6352,15.9817 88.0717,15.9817 Z M92.9347,20.5147 C92.7622,21.4522 91.8992,22.0777 90.7117,22.0777 L88.0717,22.0777 C86.6352,21.9212 85.7087,20.9832 85.7087,19.4202 L88.0717,19.4202 L90.6097,19.4202 L95.0527,19.4202 L95.0527,19.2102 C95.0527,16.5847 93.6427,14.4187 90.6097,14.4187 L88.0717,14.4187 C84.7197,14.4187 83.4937,16.9027 83.4937,19.1717 C83.4937,21.7287 85.0392,23.6407 88.0717,23.6407 L90.7297,23.6837 C92.9642,23.6567 94.7332,22.5087 95.0527,20.5087 L95.0527,20.5147 L92.9347,20.5147 Z" id="Fill-19" fill="#FFFFFF"></path>
            </g>
        </g>
    </g>
</svg>