<?xml version="1.0" encoding="utf-8"?>
<!-- Generator: Adobe Illustrator 19.1.0, SVG Export Plug-In . SVG Version: 6.00 Build 0)  -->
<svg version="1.1" id="Layer_1" xmlns="http://www.w3.org/2000/svg" xmlns:xlink="http://www.w3.org/1999/xlink" x="0px" y="0px"
	 viewBox="0 0 128 48" style="enable-background:new 0 0 128 48;" xml:space="preserve">
<style type="text/css">
	.st0{fill:#F4EE19;}
	.st1{fill:#FFFFFF;}
</style>
<g>
	<polygon class="st0" points="53.8,18.3 64.4,18.3 64.4,20.2 56.2,20.2 56.2,23.8 64.6,23.8 64.6,25.7 56.2,25.7 56.2,29.6 
		64.6,29.6 64.6,31.5 53.8,31.5 	"/>
	<path class="st0" d="M74.1,31.5h-2.3v-5.7c0-1.2-0.7-1.7-1.5-1.7c-1.1,0-2,0.8-2,3.4v4H66v-8.8h2.1v1.9c0.4-1.1,1.3-2.1,2.9-2.1
		c1.4,0,2.5,0.8,2.9,2.1c0.4-1.1,1.3-2.1,3-2.1c1.7,0,3,0.9,3,3.2v5.7h-2.3v-5.7c0-1.2-0.7-1.7-1.5-1.7c-1.1,0-2,0.8-2,3.4V31.5z"/>
	<path class="st0" d="M81.3,17.6h2.3v6.5c0.5-0.8,1.5-1.6,3.1-1.6c2.6,0,4.1,2,4.1,4.6c0,2.6-1.6,4.6-4.3,4.6
		c-1.7,0-2.8-0.8-3.2-1.7v1.5h-2V17.6z M88.5,27.1c0-1.9-1.1-3-2.5-3c-1.4,0-2.5,1.1-2.5,3c0,1.9,1.1,3,2.5,3S88.5,29,88.5,27.1"/>
	<path class="st0" d="M113.3,17.6v13.9h-2.3V30c-0.6,1.1-1.6,1.7-3,1.7c-2.7,0-4.2-2.1-4.2-4.6c0-2.6,1.6-4.6,4.2-4.6
		c1.4,0,2.5,0.6,3,1.6v-6.5H113.3z M106.1,27.1c0,1.9,1.1,3,2.5,3c1.4,0,2.5-1.1,2.5-3c0-1.9-1.1-3-2.5-3
		C107.2,24.1,106.1,25.2,106.1,27.1"/>
	<path class="st0" d="M8.9,18.5h14.5h0.9v-0.8v-2.7V8C17,8,10.8,12.4,8.9,18.5"/>
	<path class="st0" d="M23.4,20.1h-1.6H8.6C8.2,21.3,8,22.6,8,24c0,1.4,0.2,2.7,0.6,3.9H23h0.4h0.9v-0.8v-6.1v-0.8H23.4z"/>
	<path class="st0" d="M23.4,29.5h-0.8H8.9C10.8,35.6,17,40,24.3,40v-5.4v-2.2v-2v-0.8H23.4z"/>
	<path class="st0" d="M42.3,8c-0.1,1.2-0.3,2.4-0.6,3.5c-1.9,6.7-8.2,11.7-15.7,11.7V11.5V8H42.3z"/>
	<path class="st0" d="M26,24.8v3.5V40c7.5,0,13.8-4.9,15.7-11.7c0.3-1.1,0.5-2.3,0.6-3.5H26z"/>
	<path class="st0" d="M100.9,28.5c-0.2,0.9-1,1.6-2.2,1.6h-2.6c-1.4-0.2-2.4-1.1-2.4-2.7h2.4h2.5h4.4v-0.2c0-2.6-1.4-4.8-4.4-4.8
		h-2.5c-3.4,0-4.6,2.5-4.6,4.8c0,2.6,1.5,4.5,4.6,4.5l2.7,0c2.2,0,4-1.2,4.3-3.2v0H100.9z M96.1,24h2.5c1.3,0,2,0.8,2.1,2h-2.1h-2.5
		h-2.3C93.8,24.9,94.6,24,96.1,24"/>
</g>
</svg>
