<?xml version="1.0" encoding="UTF-8"?>
<svg width="24px" height="24px" viewBox="0 0 24 24" version="1.1" xmlns="http://www.w3.org/2000/svg" xmlns:xlink="http://www.w3.org/1999/xlink">
    <!-- Generator: Sketch 51.3 (57544) - http://www.bohemiancoding.com/sketch -->
    <title>icon-power-green</title>
    <desc>Created with Sketch.</desc>
    <defs></defs>
    <g id="icon-power-green" stroke="none" stroke-width="1" fill="none" fill-rule="evenodd">
        <path d="M8,2.83208737 L8,7.52778699 C6.77250128,8.62642809 6,10.2230004 6,12 C6,15.3137085 8.6862915,18 12,18 C15.3137085,18 18,15.3137085 18,12 C18,10.2230004 17.2274987,8.62642809 16,7.52778699 L16,2.83208737 C19.5318096,4.37520062 22,7.89936193 22,12 C22,17.5228475 17.5228475,22 12,22 C6.4771525,22 2,17.5228475 2,12 C2,7.89936193 4.46819043,4.37520062 8,2.83208737 Z M10,1 L14,1 L14,11.9167427 L10,11.9167427 L10,1 Z" id="Combined-Shape" fill="#04A64B" fill-rule="nonzero"></path>
    </g>
</svg>